<?xml version="1.0" encoding="utf-8"?>
<!-- Generator: Adobe Illustrator 25.1.0, SVG Export Plug-In . SVG Version: 6.00 Build 0)  -->
<svg version="1.1" xmlns="http://www.w3.org/2000/svg" xmlns:xlink="http://www.w3.org/1999/xlink" x="0px" y="0px"
	 viewBox="0 0 936.1 282.3" style="enable-background:new 0 0 936.1 282.3;" xml:space="preserve">
<style type="text/css">
	.st0{fill:#FFFFFF;}
	.st1{fill:none;}
</style>
<g id="Layer_1">
	<path class="st0" d="M220,83.3c-2.9-0.8-3.5-1.8-2.6-4.5c2.2-6.8,3.1-13.7,1.3-20.7C215.2,45,203,35.8,187.7,35
		c-2.7-0.1-3.8-0.9-4.5-3.6c-2.3-9-8-15-17-17.1c-9.7-2.3-18.6-1.2-26.8,2.7c-8.1-3.7-16.8-4.7-26.2-2.5c-9,2.2-14.7,8.2-17,17.1
		c-0.7,2.7-1.9,3.4-4.5,3.6c-15.3,0.8-27.5,9.9-30.9,23.1c-1.8,7-1,14,1.3,20.7c0.9,2.7,0.3,3.7-2.6,4.5
		c-20.6,5.7-30.9,23.6-25.1,44.3c1.8,6.5,1.9,12.4,0.1,18.9c-5.8,21.1,3.7,37.9,24.8,44.4c3.1,1,3.9,2.1,2.8,5.1
		c-0.9,2.5-1.4,5.2-1.7,7.9c-2.9,21.6,13.3,33.2,28.3,35.1c1.3,0.2,2.7,0.3,4.1,0.3c2.2-0.1,3,1,3.5,3c2.9,11,10.1,17.6,21.6,18.6
		c8,0.8,15.5-0.4,22.3-3.6c6.6,3,13.9,4.1,21.6,3.3c11.5-1.1,18.7-7.6,21.6-18.6c0.5-1.9,1.3-3.1,3.5-3c1.3,0.1,2.7-0.1,4.1-0.3
		c15-1.9,31.2-13.5,28.3-35.1c-0.4-2.7-0.8-5.4-1.7-7.9c-1.1-3-0.3-4.1,2.8-5.1c21.1-6.5,30.6-23.3,24.8-44.4
		c-1.8-6.6-1.7-12.4,0.1-18.9C250.8,107,240.5,89.1,220,83.3z M155.8,22.9c0-4.2,0.6-4.7,4.8-4.1c10.9,1.5,16.8,7.3,18.1,18.1
		c0.4,3.5,1.8,4.3,5.1,3.7c18.1-2.9,33.6,13.6,29.7,31.6c-0.2,1.1-0.5,2.1-0.7,3.2c-0.9,4.9-3.3,8.4-8,10.7
		c-5.8,2.8-11.3,6.4-17.9,10.1c0-3.6,0-6.3,0-9.1c0-2.7,0.1-5.4,0-8.1c-0.1-3.8-0.2-7.2,3.6-10c3.6-2.6,2.9-8.8-0.3-11.9
		c-3.2-3.2-8.8-3.2-12.1-0.1c-3.6,3.4-4.2,9.1-0.4,12.1c3.6,2.8,3.9,6,3.8,9.9c-0.1,5.7-0.1,11.3,0,17c0,2.3-0.7,3.9-2.8,5.1
		c-5.6,3.1-11,6.5-16.7,9.5c-1.3,0.7-3.3,0.7-4.7,0.2c-0.5-0.2-0.9-0.3-1.4-0.4c0-6.6,0-13.1,0-19.7c1.3-0.5,2.5-1.2,3.5-2.3
		c3.5-3.6,3.3-9.7-0.9-12.7c-1.5-1.1-2.3-2.3-2.6-3.8c0-11.4,0.1-22.8,0.2-34.2c0-1.3-0.1-2.6-0.3-3.7
		C155.8,30.3,155.8,26.6,155.8,22.9z M150.7,234.6c0,1.2-0.3,2.5-0.5,4.3c-1.8-0.9-3.5-1.8-5.2-2.7c1.9-1,3.8-1.9,5.8-2.9
		C150.7,233.8,150.7,234.2,150.7,234.6z M150,19.5c0.1,1.6,0.3,2.8,0.3,4c0,0.2,0,0.4,0,0.6c-0.2-0.2-0.4-0.3-0.6-0.5
		c-1.3-1.1-2.7-2.1-4-3C147.1,20.2,148.5,19.8,150,19.5z M129,23.7c0-1.2,0.2-2.4,0.3-4c1.3,0.3,2.6,0.6,3.8,1
		c-1.2,0.8-2.3,1.7-3.5,2.6C129.4,23.5,129.2,23.6,129,23.7C129,23.8,129,23.8,129,23.7z M128.7,192.7c0.1-0.6,0.2-1.2,0.2-1.8
		c-0.2-6.5,0-13.1-0.1-19.6c0-2.6,0.4-4.6,2.8-6.3c1.4-0.9,2.5-2.8,2.9-4.5c1.2-4.6-1-8.7-5.1-10.2c-0.2-0.1-0.4-0.1-0.6-0.2
		c0-7.7,0-15.4,0-23c4.3-1.5,6.8-6.3,5.5-10.6c-0.9-2.8-2.9-4.7-5.4-5.6c0-6.6,0-13.2,0-19.9c1.4-0.5,2.7-1.3,3.8-2.5
		c3.4-3.6,3.1-9.7-1.1-12.7c-2.2-1.5-2.6-3.2-2.6-5.6c0.1-11.9,0.1-23.9,0.1-35.8c0.2-1.6,0.9-3.2,1.8-4.4c2.4-3,5.3-5.3,8.6-7
		c3.5,1.7,6.6,4.1,9.2,7.3c0.9,1.2,1.6,2.8,1.8,4.4c0,11.7,0,23.5,0.1,35.2c0,2.4-0.5,4-2.6,5.6c-4.2,3-4.6,9-1.1,12.7
		c1.1,1.2,2.5,2.1,3.8,2.5c0,6.6,0,13.2,0,19.9c-2.5,0.9-4.6,2.8-5.4,5.6c-1.3,4.3,1.2,9.1,5.5,10.6c0,7.7,0,15.4,0,23
		c-0.2,0.1-0.4,0.1-0.6,0.2c-4.1,1.5-6.3,5.6-5.1,10.2c0.4,1.7,1.5,3.5,2.9,4.5c2.4,1.6,2.8,3.7,2.8,6.3c-0.1,6.5,0.1,13.1-0.1,19.6
		c0,0.7,0,1.3,0.1,1.8c0,11.7,0,23.3,0,35c-3.7,2-7.5,4-11.3,6c-3.7-1.9-7.2-3.8-10.8-5.7C128.6,216.1,128.6,204.4,128.7,192.7z
		 M128.6,233.7c1.8,0.8,3.5,1.7,5.2,2.6c-1.5,0.8-3.1,1.6-4.7,2.4c-0.2-1.9-0.6-3.1-0.5-4.3C128.6,234.1,128.6,233.9,128.6,233.7z
		 M95.5,40.9c3.3,0.5,4.7-0.3,5.1-3.7c1.3-10.9,7.2-16.7,18.1-18.1c4.2-0.6,4.7-0.1,4.8,4.1c0,3.5,0,7,0,10.6
		c-0.2,1.2-0.3,2.4-0.3,3.7c0.1,11.6,0.1,23.2,0.2,34.7c-0.3,1.5-1.1,2.7-2.6,3.8c-4.2,3.1-4.4,9.1-0.9,12.7
		c1.1,1.1,2.3,1.8,3.5,2.3c0,6.6,0,13.1,0,19.7c-0.5,0.1-0.9,0.2-1.4,0.4c-1.4,0.5-3.4,0.5-4.7-0.2c-5.6-3-11.1-6.4-16.7-9.5
		c-2.1-1.2-2.9-2.7-2.8-5.1c0.1-5.7,0.2-11.3,0-17c-0.1-3.9,0.2-7.1,3.8-9.9c3.9-3,3.3-8.7-0.4-12.1c-3.3-3.1-8.9-3-12.1,0.1
		c-3.2,3.2-3.9,9.4-0.3,11.9c3.9,2.8,3.7,6.1,3.6,10c-0.1,2.7,0,5.4,0,8.1c0,2.7,0,5.5,0,9.1c-6.6-3.8-12-7.3-17.9-10.1
		c-4.7-2.3-7.2-5.7-8-10.7c-0.2-1.1-0.5-2.2-0.7-3.2C61.9,54.5,77.4,38,95.5,40.9z M67,218.8c-3.4-8.1-1.9-16,1-23.7
		c0.8-2.2,2.8-4.4,4.8-5.6c8.1-5,16.3-9.7,24.6-14.3c0.4-0.2,0.7-0.4,1-0.6c1.5-0.9,1.2-2.8,1.2-2.8c-0.1-0.4-0.1-0.8-0.3-1.3
		c-2.3-7.7-4.5-15.4-6.5-23.1c-0.4-1.4,0-3.4,0.8-4.6c3.1-4.6,2.4-10.3-1.9-13c-4.3-2.8-10-1.3-12.4,3.2c-2.6,5-0.6,9.9,4.8,12.4
		c1.4,0.7,3,2.2,3.4,3.7c2.2,6.8,4.2,13.7,5.8,20.6c0.1,0.4,0.1,0.9,0.1,1.4c-0.3,0.3-0.6,0.6-1,0.9c-8.4,5.1-17,10-25.6,14.8
		c-1,0.6-2.4,1.1-3.4,0.8c-11.3-3.3-23.1-9.7-25.3-25.2c-1-7.3,1.2-14.1,3.1-21c0.6-2.2,0.4-4.8,0.1-7.1c-0.9-5.7-2.4-11.3-3.3-17
		c-0.3-1.7,0.4-3.6,0.7-6c7.7,4.5,14.7,8.3,21.5,12.5c0.2,0.1,0.5,0.4,0.7,0.6c0,0,1.9,1.4,1.8,2.1c0,0.4-0.3,1.6-0.5,2.8
		c-1.7,5.7-3.6,11.4-5.7,17c-0.5,1.4-2.1,2.9-3.5,3.5c-4.8,2-7.3,7.2-5.4,11.8c2,4.7,7.2,6.6,11.7,4.4c4.8-2.4,6.6-8,3.5-12.5
		c-1.6-2.3-1.6-4.1-0.7-6.5c1.6-4.5,3-9,4.5-13.4l0.5-1.4c0.5-1.3,0.9-2.7,1.4-4c0.1-0.2,0.1-0.4,0.2-0.6c0,0,0.5-4.6-2.7-6.6
		c-0.5-0.4-1-0.9-1.7-1.2c-7.1-3.9-14-8.2-21.2-12.1c-2.7-1.5-2.8-2.9-1.2-5.2c5.2-8,13.1-12.1,22-14.4c1.1-0.3,2.7,0.2,3.8,0.8
		c15.7,9,31.4,18,47,27.2c1.1,0.7,2.1,2.4,2.3,3.7c0.7,4,3.1,6.8,6.2,7.7c0,3.3,0,6.6,0,9.9c0.1,0,0.1,0,0.2,0c0,4.3,0,8.7,0,13
		c-2,0.6-3.8,1.9-4.9,3.8c-2.2,3.8-1.4,8.4,2.3,11.2c1.6,1.2,2.3,2.5,2.6,4.1c0,1.9,0,3.9,0,5.8c0,2.9-0.1,5.8,0,8.7
		c0,2,0,3.9,0,5.9c-0.4,1.9-1.6,3.1-3.5,4.2c-15.7,9-31.4,18.1-47,27.1C69.3,223.3,68.7,223,67,218.8z M119.6,256.4
		c-10.8-0.6-17.7-7.1-19.1-17.6c-0.7-4.8-0.8-4.8-5.5-4.4c-8,0.7-14.9-1.7-21.7-7.2c1.7-1.1,2.7-2,3.9-2.6
		c15.5-8.9,30.9-17.9,46.5-26.7c0,6.9,0,13.7,0,20.6c-0.9-0.7-1.9-1.1-3.1-1.4c-4-0.8-7.7,0.8-9.5,4.1c-1.7,3.1-1.1,7.6,1.2,10
		c3,3,6.4,3.4,10.5,1.8c0.3-0.1,0.5-0.2,0.8-0.2c0,2,0,4,0,5.9c0,4.3,1.4,7.6,4.4,10.5c2,2,4.2,3.7,6.4,5.2
		C129.7,256,124.8,256.7,119.6,256.4z M139.9,252c-2.3-1.2-4.5-2.7-6.6-4.4c-0.7-0.5-1.3-1.2-1.8-1.8c-0.3-0.4-0.5-0.8-0.9-1.6
		c1-0.7,2-1.4,3-2c1.9-1,3.9-2,5.8-3c2.1,1.1,4.3,2.2,6.4,3.3c1,0.5,2,1.3,3,2c-0.4,0.8-0.6,1.2-0.9,1.6c-0.6,0.6-1.2,1.3-1.8,1.8
		C144.1,249.4,142,250.8,139.9,252z M184.4,234.2c-4.8-0.4-4.9-0.5-5.5,4.4c-1.4,10.5-8.3,17-19.1,17.6c-5,0.3-9.7-0.3-14.1-1.8
		c2-1.4,4-3,5.8-4.8c2.9-2.9,4.4-6.2,4.4-10.5c0-2.2,0-4.3,0-6.5c0.3,0.1,0.6,0.1,0.8,0.2c4,1.6,7.5,1.2,10.5-1.8
		c2.4-2.4,2.9-6.9,1.2-10c-1.8-3.3-5.5-4.9-9.5-4.1c-1.2,0.2-2.2,0.7-3.1,1.4c0-6.9,0-13.7,0-20.6c15.5,8.8,31,17.8,46.5,26.7
		c1.1,0.7,2.2,1.5,3.9,2.6C199.3,232.5,192.3,234.9,184.4,234.2z M241.1,161.9c-2.1,15.5-13.9,21.9-25.3,25.2
		c-1,0.3-2.4-0.2-3.4-0.8c-8.6-4.9-17.1-9.7-25.6-14.8c-0.3-0.2-0.7-0.5-1-0.9c0-0.5,0-1,0.1-1.4c1.7-6.9,3.7-13.8,5.8-20.6
		c0.5-1.5,2-3,3.4-3.7c5.4-2.5,7.5-7.4,4.8-12.4c-2.4-4.5-8.1-6-12.4-3.2c-4.3,2.8-4.9,8.5-1.9,13c0.8,1.2,1.1,3.2,0.8,4.6
		c-2,7.8-4.2,15.5-6.5,23.1c-0.1,0.4-0.2,0.9-0.3,1.3c0,0-0.3,1.9,1.2,2.8c0.3,0.2,0.6,0.4,1,0.6c8.3,4.6,16.5,9.3,24.6,14.3
		c2,1.2,3.9,3.5,4.8,5.6c2.9,7.7,4.3,15.7,1,23.7c-1.8,4.2-2.3,4.5-6.1,2.3c-15.7-9-31.3-18.1-47-27.1c-1.9-1.1-3.1-2.3-3.5-4.2
		c0-2,0-3.9,0-5.9c0.1-2.9,0-5.8,0-8.6c0-1.9,0-3.9,0-5.8c0.2-1.6,0.9-2.9,2.6-4.1c3.7-2.7,4.5-7.4,2.3-11.2
		c-1.1-1.9-2.9-3.2-4.9-3.8c0-4.2,0-8.3,0-12.5c0.1,0,0.1,0,0.2,0c0-3.5,0-7,0-10.4c3.2-0.9,5.5-3.7,6.2-7.7
		c0.2-1.4,1.2-3.1,2.3-3.7c15.6-9.2,31.3-18.2,47-27.2c1.1-0.6,2.7-1.1,3.8-0.8c8.9,2.3,16.8,6.4,22,14.4c1.5,2.3,1.4,3.8-1.2,5.2
		c-7.1,3.9-14,8.2-21.2,12.1c-0.7,0.4-1.2,0.8-1.7,1.2c-3.2,2.1-2.7,6.6-2.7,6.6c0.1,0.2,0.1,0.4,0.2,0.6c0.5,1.3,0.9,2.7,1.4,4
		l0.5,1.5c1.5,4.5,2.9,9,4.5,13.4c0.8,2.4,0.8,4.2-0.7,6.5c-3.1,4.5-1.4,10.1,3.5,12.5c4.5,2.2,9.7,0.3,11.7-4.4
		c1.9-4.6-0.6-9.8-5.4-11.8c-1.4-0.6-3-2.1-3.5-3.5c-2.1-5.6-4-11.3-5.7-17c-0.2-1.2-0.5-2.4-0.5-2.8c0-0.7,1.8-2.1,1.8-2.1
		c0.2-0.3,0.4-0.5,0.7-0.6c6.8-4.2,13.8-8.1,21.5-12.5c0.3,2.4,1,4.3,0.7,6c-0.9,5.7-2.3,11.3-3.3,17c-0.4,2.3-0.5,4.9,0.1,7.1
		C239.9,147.8,242.1,154.6,241.1,161.9z"/>
</g>
<g id="Layer_2">
	<rect x="342.2" y="154.5" class="st1" width="2" height="0"/>
	<g>
		<g>
			<path class="st0" d="M407.5,76.1v123.1H399v-96.7l-29,88.2h-8.8l-29-88.2v96.7h-8.5V76.1h8.6l33.2,101.1l33.2-101.1H407.5z"/>
			<path class="st0" d="M425.1,199V76.3h8.5V199H425.1z"/>
			<path class="st0" d="M504.6,199.1h-53.4V77h8.5v113.7h44.9V199.1z"/>
			<path class="st0" d="M546.6,75.5c7.9,0,14.6,2.8,20.3,8.4c5.6,5.6,8.5,12.4,8.5,20.2v95.1h-8.5v-38.4h-40.6v38.4h-8.5v-95.1
				c0-7.9,2.8-14.6,8.4-20.2C531.9,78.3,538.6,75.5,546.6,75.5z M566.9,152.3v-48.2c0-5.6-2-10.3-6-14.3c-4-3.9-8.7-5.9-14.3-5.9
				c-5.6,0-10.4,2-14.4,5.9c-3.9,3.9-5.9,8.7-5.9,14.3v48.2H566.9z"/>
			<path class="st0" d="M622.7,198.8c-8.5,0-15.7-2.9-21.7-8.6c-6-5.7-9-12.7-9-20.9v-64.2c0-8.1,3-15,9-20.8
				c6-5.8,13.2-8.6,21.7-8.6c8.5,0,15.7,2.9,21.7,8.6c6,5.8,9,12.7,9,20.8v4.2h-8.5v-4.2c0-5.8-2.2-10.7-6.5-14.8
				c-4.4-4.1-9.6-6.2-15.7-6.2c-6.1,0-11.3,2.1-15.7,6.2c-4.3,4.1-6.5,9.1-6.5,14.8v64.2c0,5.8,2.2,10.8,6.5,14.9
				c4.3,4.1,9.5,6.1,15.7,6.1c6.1,0,11.3-2,15.7-6.1c4.4-4.1,6.5-9,6.5-14.9v-4.2h8.5v4.2c0,8.2-3,15.1-9,20.9
				C638.4,196,631.1,198.8,622.7,198.8z"/>
			<path class="st0" d="M699,199.2c-8.3,0-15.4-2.9-21.3-8.8c-5.9-5.9-8.9-13-8.9-21.3v-63c0-8.3,3-15.4,8.9-21.3
				c5.9-5.9,13-8.8,21.3-8.8s15.4,2.9,21.3,8.8c5.9,5.9,8.8,13,8.8,21.3v63c0,8.3-2.9,15.4-8.8,21.3
				C714.3,196.3,707.2,199.2,699,199.2z M699,84.6c-6,0-11.1,2.1-15.3,6.3c-4.2,4.2-6.3,9.3-6.3,15.3v63c0,5.9,2.1,11,6.3,15.3
				c4.2,4.2,9.3,6.3,15.3,6.3c5.9,0,11-2.1,15.3-6.3c4.2-4.2,6.3-9.3,6.3-15.3v-63c0-5.9-2.1-11-6.3-15.3
				C710,86.7,704.9,84.6,699,84.6z"/>
			<path class="st0" d="M746.7,199V76.3h8.5V199H746.7z"/>
			<path class="st0" d="M828.9,198.6h-8.5L781.2,98V199h-8.5V76.3h8.5l39.2,100.6V75.8h8.5V198.6z"/>
			<path class="st0" d="M867.6,199.4H867c-9.8-0.4-18.4-4.4-25.7-12l6.3-5.8c5.6,6,12.2,9.1,19.6,9.3h0.3c6.1,0,11.1-2,15.2-6
				c4.4-4.5,6.6-8.3,6.7-11.3c0.1-3,0.1-4.6,0.1-4.9c0-5.5-2-10.3-5.9-14.5L874,145l-18.5-18.6c-5.6-5.9-8.4-12.8-8.4-20.5v-0.7
				c0.2-8.1,3.3-15.2,9.3-21.5c5.2-5.1,10.8-7.7,16.9-7.7h0.8c7.5,0.3,14.8,4.4,21.9,12.3l-6.3,5.6c-5.4-6.1-10.7-9.3-15.8-9.4h-0.4
				c-3.9,0-7.6,1.8-11.1,5.3c-4.4,4.5-6.6,8.3-6.7,11.3s-0.1,4.6-0.1,4.9c0,5.5,2,10.3,5.9,14.5L880,139l9.4,9.3
				c5.6,5.9,8.4,12.8,8.4,20.5v0.7c-0.2,8-3.3,15.1-9.3,21.4C882.6,196.5,875.6,199.4,867.6,199.4z"/>
		</g>
	</g>
</g>
</svg>
