<?xml version="1.0" encoding="utf-8"?>
<!-- Generator: Adobe Illustrator 25.4.1, SVG Export Plug-In . SVG Version: 6.00 Build 0)  -->
<svg version="1.1" id="Layer_1" xmlns="http://www.w3.org/2000/svg" xmlns:xlink="http://www.w3.org/1999/xlink" x="0px" y="0px"
	 viewBox="0 0 787.8 272.5" style="enable-background:new 0 0 787.8 272.5;" xml:space="preserve">
<style type="text/css">
	.st0{fill:#53AE94;}
	.st1{fill:#FFFFFF;}
	.st2{fill:#91C95C;}
	.st3{fill:#75C8E9;}
	.st4{fill:#F79441;}
</style>
<g>
	<g>
		<path class="st0" d="M643.2,30.5c58.1,0,105.3,47.1,105.3,105.3S701.4,241,643.2,241C585.1,241,538,193.9,538,135.8
			S585.1,30.5,643.2,30.5"/>
		<path class="st1" d="M656.2,121.7v-15.7h35.8V82.2h-97.5v23.9h35.8v15.6c-29.1,1.3-51,7.1-51,14s21.9,12.7,51,14v50.2h25.9v-50.2
			c29.1-1.3,50.9-7.1,50.9-14C707.2,128.8,685.3,123.1,656.2,121.7 M656.3,145.5L656.3,145.5c-0.7,0-4.5,0.3-12.8,0.3
			c-6.7,0-11.4-0.2-13-0.3v0c-25.7-1.1-44.9-5.6-44.9-11c0-5.4,19.2-9.8,44.9-11V141c1.7,0.1,6.5,0.4,13.2,0.4c8,0,12-0.3,12.7-0.4
			v-17.5c25.7,1.1,44.8,5.6,44.8,11C701.1,139.9,681.9,144.3,656.3,145.5"/>
	</g>
	<g>
		<circle class="st2" cx="475.4" cy="135.8" r="105.3"/>
		<g>
			<path class="st1" d="M498.1,131.7l0.1-0.3c17.6,0.5,27.7-6.3,30.5-20.5c1.8-9.2-0.5-16.4-7-21.7c-4.9-4-12.1-7.3-21.5-9.8
				l2.8-14.3l-10.4-2l-2.7,14l-10.1-1.9l2.7-14l-10.4-2l-2.7,14l-25.2-4.9l-2.3,12.3l13.5,2.6c2.1,0.4,3.5,2.4,3.1,4.6l-14.2,73.5
				c-0.4,2.1-2.4,3.5-4.6,3.1l-13.6-2.6l-4,14.9l26.3,5.1l-2.7,14.2l10.4,2l2.7-14.2l10,1.9c0,0,0.1,0,0.1,0l-2.7,14.2l10.4,2
				l2.8-14.6c11,1.3,20.1,0.9,27.3-1.3c9.3-2.9,15.1-9.9,17.3-21.2C526.8,149.3,518.2,138.3,498.1,131.7z M477.5,87.4
				c12.9,2.5,34.5,6.7,31.5,22.2c-3,15.6-24.6,11.4-37.5,8.9L477.5,87.4z M462,167.5l6.3-32.3c15.1,2.9,40.4,7.8,37.3,24
				S477.1,170.4,462,167.5z"/>
		</g>
	</g>
	<g>
		<circle class="st3" cx="305.2" cy="135.8" r="105.3"/>
		<g>
			<g>
				<g>
					<polygon class="st1" points="306.3,57.9 306.3,112.5 261.4,132.6 					"/>
					<polygon class="st1" points="306.3,112.5 306.3,160 261.4,132.6 					"/>
					<polygon class="st1" points="306.3,169.7 306.3,206.3 261.4,143.1 					"/>
				</g>
				<g>
					<polygon class="st1" points="306.3,57.9 306.3,112.5 351.1,132.6 					"/>
					<polygon class="st1" points="306.3,112.5 306.3,160 351.1,132.6 					"/>
					<polygon class="st1" points="306.3,169.7 306.3,206.3 351.1,143.1 					"/>
				</g>
			</g>
		</g>
	</g>
	<g>
		<circle class="st4" cx="130.2" cy="135.8" r="105.3"/>
		<g>
			<path class="st1" d="M152.5,128.4v-0.3c17.4-2.8,26-11.5,26-25.9c0-9.4-3.7-16-11-20c-5.6-3-13.2-4.9-23-5.6V62.1H134v14.3h-10.3
				V62.1h-10.6v14.3H87.5l0.1,12.5l13.8,0c2.1,0,3.9,1.7,3.9,3.9v74.8c0,2.1-1.7,3.9-3.9,3.9H87.5l-1.1,15.4h26.8v14.5h10.6v-14.5
				h10.1c0,0,0.1,0,0.1,0v14.5h10.6v-14.8c11.1-0.8,19.9-3,26.6-6.5c8.6-4.6,12.9-12.6,12.9-24.1C184.1,140.2,173.6,131,152.5,128.4
				z M123.9,88.8c13.1,0,35.1,0,35.1,15.8s-22,15.8-35.1,15.8V88.8z M123.9,170.3v-32.9c15.4,0,41.2,0,41.2,16.5
				S139.3,170.3,123.9,170.3z"/>
		</g>
	</g>
</g>
</svg>
