<?xml version="1.0" encoding="utf-8"?>
<!-- Generator: Adobe Illustrator 25.0.0, SVG Export Plug-In . SVG Version: 6.00 Build 0)  -->
<svg version="1.1" id="Layer_1" xmlns="http://www.w3.org/2000/svg" xmlns:xlink="http://www.w3.org/1999/xlink" x="0px" y="0px"
	 viewBox="0 0 3472.9 1221.8" style="enable-background:new 0 0 3472.9 1221.8;" xml:space="preserve">
<style type="text/css">
	.st0{fill:url(#SVGID_1_);}
	.st1{fill:none;}
	.st2{fill:url(#SVGID_2_);}
	.st3{fill:url(#SVGID_3_);}
	.st4{fill:url(#SVGID_4_);}
	.st5{fill:url(#SVGID_5_);}
	.st6{fill:url(#SVGID_6_);}
	.st7{fill:url(#SVGID_7_);}
	.st8{fill:url(#SVGID_8_);}
	.st9{fill:url(#SVGID_9_);}
	.st10{fill:url(#SVGID_10_);}
</style>
<g id="Layer_1_1_">
	
		<linearGradient id="SVGID_1_" gradientUnits="userSpaceOnUse" x1="514.6976" y1="986.9189" x2="1027.812" y2="986.9189" gradientTransform="matrix(1 0 0 -1 0 1597.8899)">
		<stop  offset="3.140703e-04" style="stop-color:#AB20FD"/>
		<stop  offset="1" style="stop-color:#FE2A32"/>
	</linearGradient>
	<path class="st0" d="M963.7,481.5c-7-1.9-8.4-4.2-6.2-10.8c5.3-16.2,7.4-32.9,3-49.7c-8.1-31.5-37.4-53.6-74.1-55.4
		c-6.4-0.3-9.2-2.1-10.8-8.5c-5.5-21.5-19.2-35.9-40.8-41.1c-23.2-5.6-44.6-2.9-64.3,6.6c-19.3-8.9-40.3-11.3-62.9-5.9
		c-21.6,5.2-35.3,19.6-40.8,41.1c-1.6,6.4-4.4,8.2-10.8,8.5c-36.7,1.8-66,23.8-74.1,55.4c-4.3,16.8-2.3,33.5,3,49.7
		c2.2,6.6,0.8,8.8-6.2,10.8c-49.4,13.7-74,56.7-60.2,106.3c4.3,15.6,4.6,29.7,0.3,45.4c-13.9,50.7,8.9,90.9,59.4,106.6
		c7.5,2.3,9.4,4.9,6.8,12.2c-2.1,6.1-3.3,12.6-4.1,19c-7,51.8,31.9,79.7,67.8,84.2c3.2,0.4,6.5,0.8,9.7,0.6c5.2-0.3,7.1,2.5,8.4,7.1
		c7,26.4,24.3,42.1,51.8,44.7c19.3,1.8,37.2-0.9,53.5-8.6c15.8,7.1,33.2,9.7,51.9,7.9c27.5-2.6,44.8-18.3,51.8-44.7
		c1.2-4.6,3.1-7.4,8.4-7.1c3.2,0.2,6.5-0.2,9.7-0.6c35.9-4.5,74.8-32.3,67.8-84.2c-0.9-6.4-2-12.9-4.1-19c-2.5-7.3-0.7-9.9,6.8-12.2
		c50.5-15.6,73.3-55.9,59.4-106.6c-4.3-15.7-4-29.8,0.3-45.4C1037.7,538.1,1013,495.2,963.7,481.5z M809.8,336.4
		c0-10.1,1.3-11.2,11.4-9.8c26.2,3.5,40.4,17.4,43.5,43.5c1,8.3,4.3,10.3,12.2,9c43.4-7,80.6,32.7,71.3,75.8
		c-0.6,2.6-1.3,5.2-1.8,7.8c-2.1,11.8-8,20.1-19.3,25.6c-14,6.8-27.1,15.3-42.9,24.3c0-8.7,0-15.2,0-21.8c0-6.5,0.2-13,0-19.5
		c-0.3-9.1-0.5-17.2,8.7-23.9c8.6-6.2,7-21.1-0.7-28.7c-7.8-7.6-21.2-7.7-29-0.3c-8.7,8.2-10.1,21.8-0.9,29
		c8.7,6.8,9.3,14.5,9.1,23.9c-0.3,13.6-0.2,27.2,0,40.8c0.1,5.6-1.7,9.3-6.8,12.1c-13.5,7.4-26.5,15.6-40,22.8
		c-3,1.6-7.9,1.7-11.2,0.4c-1.1-0.4-2.3-0.7-3.4-1c0-15.8,0-31.5,0-47.3c3-1.1,5.9-2.9,8.5-5.5c8.4-8.6,7.8-23.2-2.2-30.5
		c-3.7-2.7-5.5-5.6-6.3-9.1c0-27.3,0.1-54.6,0.4-81.9c0-3.2-0.2-6.1-0.6-9C809.8,354.2,809.8,345.3,809.8,336.4z M797.6,844.3
		c0,3-0.7,6-1.3,10.4c-4.3-2.2-8.4-4.3-12.5-6.5c4.6-2.3,9.2-4.6,13.9-6.9C797.6,842.4,797.6,843.4,797.6,844.3z M796,328.3
		c0.3,3.8,0.6,6.7,0.6,9.5c0,0.5,0,1,0,1.5c-0.5-0.4-0.9-0.8-1.4-1.2c-3.2-2.6-6.4-5-9.7-7.1C788.9,330,792.4,329.1,796,328.3z
		 M745.5,338.5c0-2.9,0.4-5.7,0.6-9.5c3.1,0.7,6.1,1.5,9.1,2.3c-2.8,1.9-5.6,4-8.3,6.2c-0.5,0.4-0.9,0.8-1.4,1.2
		C745.5,338.6,745.5,338.6,745.5,338.5z M744.7,743.9c0.3-1.3,0.4-2.8,0.4-4.4c-0.4-15.7,0.1-31.3-0.1-47
		c-0.1-6.3,0.9-11.1,6.7-15.1c3.3-2.2,5.9-6.8,6.9-10.7c2.9-10.9-2.5-20.8-12.3-24.4c-0.5-0.2-1-0.3-1.5-0.5
		c0-18.4,0.1-36.8,0.1-55.3c10.2-3.6,16.3-15.1,13.1-25.5c-2.1-6.7-7-11.4-13.1-13.4c0-15.9,0.1-31.7,0.1-47.6
		c3.3-1.1,6.5-3.1,9.2-6c8.2-8.7,7.4-23.2-2.7-30.4c-5.2-3.7-6.3-7.6-6.3-13.3c0.2-28.6,0.2-57.2,0.2-85.9c0.5-3.7,2.1-7.7,4.3-10.5
		c5.8-7.3,12.8-12.7,20.6-16.8c8.4,4.2,15.8,9.7,22,17.5c2.2,2.8,3.8,6.7,4.3,10.5c0.1,28.2,0.1,56.3,0.2,84.5
		c0,5.7-1.1,9.7-6.3,13.3c-10.1,7.2-10.9,21.7-2.7,30.4c2.7,2.9,5.9,4.9,9.2,6c0,15.9,0.1,31.8,0.1,47.6c-6.1,2.1-11,6.7-13.1,13.4
		c-3.2,10.4,2.9,21.9,13.1,25.5c0,18.4,0.1,36.8,0.1,55.3c-0.5,0.1-1,0.3-1.5,0.5c-9.8,3.7-15.2,13.5-12.3,24.4
		c1,4,3.7,8.5,6.9,10.7c5.8,3.9,6.8,8.8,6.7,15.1c-0.2,15.7,0.2,31.3-0.1,47c0,1.6,0.1,3.1,0.4,4.4c0,28,0.1,56,0.1,83.9
		c-8.9,4.8-17.9,9.5-27.1,14.3c-8.8-4.5-17.3-9-25.8-13.6C744.6,799.8,744.7,771.8,744.7,743.9z M744.6,842.1
		c4.2,2,8.4,4.1,12.5,6.2c-3.7,1.9-7.4,3.8-11.2,5.8c-0.6-4.4-1.3-7.4-1.3-10.4C744.6,843.1,744.6,842.6,744.6,842.1z M665.2,379.8
		c8,1.3,11.3-0.6,12.2-9c3-26.1,17.3-40,43.5-43.5c10.1-1.4,11.4-0.3,11.4,9.8c0,8.4,0,16.9,0,25.3c-0.4,2.8-0.7,5.8-0.6,9
		c0.2,27.8,0.3,55.5,0.4,83.3c-0.7,3.6-2.5,6.4-6.3,9.1c-10,7.3-10.6,21.9-2.2,30.5c2.6,2.6,5.5,4.4,8.5,5.5c0,15.8,0,31.5,0,47.3
		c-1.1,0.3-2.3,0.6-3.4,1c-3.3,1.2-8.2,1.2-11.2-0.4c-13.6-7.2-26.6-15.4-40-22.8c-5.1-2.8-6.9-6.5-6.8-12.1
		c0.3-13.6,0.4-27.2,0-40.8c-0.2-9.3,0.4-17.1,9.1-23.9c9.3-7.3,7.8-20.8-0.9-29c-7.9-7.4-21.3-7.3-29,0.3
		c-7.7,7.6-9.3,22.4-0.7,28.7c9.2,6.7,9,14.7,8.7,23.9c-0.2,6.5,0,13,0,19.5c0,6.6,0,13.1,0,21.8c-15.7-9-28.9-17.5-42.9-24.3
		c-11.2-5.5-17.2-13.7-19.3-25.6c-0.5-2.6-1.2-5.2-1.8-7.8C584.6,412.4,621.8,372.7,665.2,379.8z M596.7,806.4
		c-8.1-19.4-4.7-38.4,2.3-56.9c2-5.3,6.6-10.6,11.4-13.5c19.3-11.9,39.1-23.2,59-34.3c0.9-0.5,1.6-1,2.3-1.5
		c3.6-2.2,2.9-6.8,2.9-6.8c-0.2-1-0.4-2-0.7-3c-5.5-18.4-10.8-36.9-15.5-55.5c-0.9-3.4-0.1-8.2,1.8-11.1c7.4-10.9,5.7-24.7-4.5-31.3
		s-24-3-29.7,7.8c-6.3,11.9-1.4,23.7,11.6,29.7c3.4,1.6,7.1,5.3,8.3,8.8c5.2,16.3,10,32.8,14,49.4c0.2,1,0.3,2.1,0.2,3.3
		c-0.7,0.8-1.5,1.6-2.3,2c-20.2,12.3-40.7,23.9-61.3,35.6c-2.4,1.4-5.9,2.6-8.2,1.9c-27.1-7.8-55.4-23.3-60.6-60.4
		c-2.4-17.5,2.8-33.8,7.4-50.4c1.5-5.3,1.1-11.4,0.2-17c-2.3-13.6-5.7-27.1-7.9-40.7c-0.7-4.2,1-8.7,1.7-14.4
		c18.6,10.7,35.3,20,51.7,30c0.6,0.4,1.1,0.9,1.6,1.6c0,0,4.5,3.3,4.4,4.9c0,0.9-0.6,3.9-1.2,6.7c-4.1,13.7-8.6,27.4-13.6,40.8
		c-1.3,3.4-5,7-8.4,8.5c-11.4,4.9-17.5,17.2-12.8,28.3c4.7,11.2,17.2,15.9,28,10.6c11.6-5.7,15.8-19.1,8.3-29.9
		c-3.8-5.5-3.8-9.8-1.8-15.5c3.7-10.7,7.2-21.5,10.8-32.2l1.2-3.5c1.1-3.2,2.2-6.5,3.3-9.7c0.2-0.5,0.3-1,0.4-1.4
		c0,0,1.3-10.9-6.5-15.9c-1.1-1.1-2.4-2-4.1-2.9c-17.1-9.3-33.7-19.6-50.8-29c-6.4-3.5-6.6-6.9-2.9-12.5
		c12.6-19.3,31.3-29,52.8-34.5c2.7-0.7,6.6,0.5,9.2,2c37.7,21.5,75.3,43.2,112.8,65.1c2.7,1.6,5,5.7,5.6,8.9
		c1.7,9.6,7.3,16.3,14.9,18.5c0,7.9,0,15.8,0,23.7c0.2,0,0.3,0,0.5,0c0,10.4,0,20.8,0,31.2c-4.8,1.5-9,4.7-11.7,9.2
		c-5.2,9-3.4,20.3,5.5,26.9c3.9,2.9,5.6,5.9,6.1,9.9c0,4.7,0,9.3,0,14c-0.1,6.9-0.1,13.8,0,20.8c0,4.7,0,9.4,0,14.1
		c-0.9,4.6-3.7,7.5-8.3,10.1c-37.7,21.6-75.2,43.4-112.8,65.1C602.3,817.1,600.9,816.5,596.7,806.4z M723,896.6
		c-25.9-1.5-42.4-17-45.9-42.1c-1.6-11.5-1.8-11.4-13.3-10.5c-19.1,1.6-35.8-4.2-52-17.4c4-2.7,6.5-4.7,9.3-6.3
		c37.1-21.4,74.2-42.9,111.4-64c0,16.5,0,32.9-0.1,49.4c-2.2-1.6-4.6-2.7-7.4-3.3c-9.6-1.9-18.5,2-22.7,9.9
		c-4,7.5-2.7,18.1,2.9,23.9c7.1,7.2,15.4,8.2,25.1,4.3c0.6-0.2,1.3-0.4,2-0.6c0,4.8,0,9.5,0,14.3c0,10.3,3.4,18.3,10.5,25.2
		c4.9,4.8,10,8.9,15.3,12.4C747.1,895.7,735.4,897.3,723,896.6z M771.7,885.9c-5.5-2.9-10.8-6.4-15.9-10.6c-1.6-1.3-3-2.8-4.4-4.3
		c-0.7-0.8-1.2-2-2.2-3.8c2.5-1.7,4.7-3.5,7.2-4.7c4.7-2.4,9.3-4.9,14-7.3c5.1,2.7,10.2,5.3,15.3,8c2.5,1.3,4.7,3.1,7.2,4.7
		c-1.1,1.9-1.5,3-2.2,3.8c-1.4,1.5-2.8,3.1-4.4,4.3C781.6,879.9,776.8,883.2,771.7,885.9z M878.3,843.3c-11.4-1-11.7-1.1-13.3,10.5
		c-3.5,25.1-20,40.7-45.9,42.1c-11.9,0.7-23.2-0.7-33.8-4.2c4.8-3.3,9.5-7.2,14-11.5c7-6.9,10.5-14.9,10.5-25.2c0-5.2,0-10.4,0-15.6
		c0.7,0.2,1.4,0.3,2,0.6c9.7,3.9,18,2.9,25.1-4.3c5.7-5.8,7-16.5,2.9-23.9c-4.2-7.9-13.1-11.7-22.7-9.9c-2.8,0.5-5.3,1.7-7.4,3.3
		c0-16.5-0.1-32.9-0.1-49.4c37.3,21.2,74.3,42.6,111.4,64c2.8,1.6,5.3,3.6,9.3,6.3C914.2,839.2,897.4,845,878.3,843.3z
		 M1014.4,669.9c-5.1,37.2-33.5,52.6-60.6,60.4c-2.4,0.7-5.8-0.6-8.2-1.9c-20.6-11.6-41.1-23.3-61.3-35.6c-0.8-0.5-1.6-1.2-2.3-2
		c0-1.2,0-2.3,0.2-3.3c4-16.6,8.8-33.1,14-49.4c1.1-3.5,4.8-7.2,8.3-8.8c13-6,18-17.8,11.6-29.7c-5.8-10.8-19.5-14.4-29.7-7.8
		c-10.2,6.6-11.8,20.3-4.5,31.3c1.9,2.9,2.7,7.7,1.8,11.1c-4.8,18.6-10,37.1-15.5,55.5c-0.3,1.1-0.5,2.1-0.7,3c0,0-0.7,4.5,2.9,6.8
		c0.7,0.5,1.5,1,2.3,1.5c19.8,11.1,39.6,22.3,59,34.3c4.8,3,9.5,8.3,11.4,13.5c7,18.5,10.4,37.6,2.3,56.9
		c-4.2,10.1-5.6,10.8-14.7,5.5c-37.6-21.7-75.1-43.5-112.8-65.1c-4.6-2.6-7.4-5.6-8.3-10.1c0-4.7,0-9.4,0-14.1
		c0.1-6.9,0.1-13.8,0-20.7c0-4.7,0-9.3,0-14c0.5-4,2.3-7,6.1-9.9c8.9-6.6,10.8-17.8,5.5-26.9c-2.6-4.5-6.9-7.7-11.7-9.2
		c0-10,0-19.9,0-29.9c0.2,0,0.3,0,0.5,0c0-8.4,0-16.7,0-25.1c7.6-2.2,13.2-9,14.9-18.5c0.6-3.3,2.9-7.3,5.6-8.9
		c37.4-22,75.1-43.6,112.8-65.1c2.6-1.5,6.4-2.7,9.2-2c21.5,5.5,40.2,15.2,52.8,34.5c3.7,5.6,3.5,9-2.9,12.5
		c-17.1,9.4-33.7,19.7-50.8,29c-1.7,0.9-3,1.9-4.1,2.9c-7.8,5-6.5,15.9-6.5,15.9c0.1,0.5,0.3,1,0.4,1.4c1.1,3.2,2.2,6.4,3.3,9.7
		l1.2,3.5c3.6,10.7,7,21.5,10.8,32.2c2,5.7,2,10-1.8,15.5c-7.5,10.8-3.3,24.2,8.3,29.9c10.9,5.3,23.3,0.6,28-10.6
		c4.6-11-1.4-23.4-12.8-28.3c-3.5-1.5-7.1-5-8.4-8.5c-5-13.4-9.5-27.1-13.6-40.8c-0.6-2.8-1.1-5.8-1.2-6.7c0-1.7,4.4-4.9,4.4-4.9
		c0.5-0.6,1-1.2,1.6-1.6c16.3-10,33.1-19.3,51.7-30c0.8,5.7,2.4,10.3,1.7,14.4c-2.2,13.6-5.6,27.1-7.9,40.7
		c-0.9,5.5-1.3,11.7,0.2,17C1011.6,636,1016.8,652.3,1014.4,669.9z"/>
</g>
<g id="Layer_2_1_">
	<polygon class="st1" points="1318.7,661.7 1324.7,661.7 1324.7,661.7 	"/>
	<g>
		<g>
			
				<linearGradient id="SVGID_2_" gradientUnits="userSpaceOnUse" x1="997.3606" y1="851.7164" x2="2690.8525" y2="851.7164" gradientTransform="matrix(1 0 0 -1 266.8395 1463.6163)">
				<stop  offset="3.140703e-04" style="stop-color:#AB20FD"/>
				<stop  offset="1" style="stop-color:#FE2A32"/>
			</linearGradient>
			<path class="st2" d="M1511.4,430.3v363.2h-25V508.4l-85.6,260.1h-26l-85.6-260.1v285.1h-25V430.3h25.5l98.1,298.1l98.1-298.1
				L1511.4,430.3L1511.4,430.3z"/>
			
				<linearGradient id="SVGID_3_" gradientUnits="userSpaceOnUse" x1="997.4828" y1="851.6663" x2="2690.9749" y2="851.6663" gradientTransform="matrix(1 0 0 -1 266.8395 1463.6163)">
				<stop  offset="3.140703e-04" style="stop-color:#AB20FD"/>
				<stop  offset="1" style="stop-color:#FE2A32"/>
			</linearGradient>
			<path class="st3" d="M1563.5,793V430.9h25V793H1563.5z"/>
			
				<linearGradient id="SVGID_4_" gradientUnits="userSpaceOnUse" x1="997.4828" y1="850.5164" x2="2690.9749" y2="850.5164" gradientTransform="matrix(1 0 0 -1 266.8395 1463.6163)">
				<stop  offset="3.140703e-04" style="stop-color:#AB20FD"/>
				<stop  offset="1" style="stop-color:#FE2A32"/>
			</linearGradient>
			<path class="st4" d="M1797.9,793.2h-157.4V433h25v335.3h132.4V793.2z"/>
			
				<linearGradient id="SVGID_5_" gradientUnits="userSpaceOnUse" x1="997.4828" y1="852.6163" x2="2690.9749" y2="852.6163" gradientTransform="matrix(1 0 0 -1 266.8395 1463.6163)">
				<stop  offset="3.140703e-04" style="stop-color:#AB20FD"/>
				<stop  offset="1" style="stop-color:#FE2A32"/>
			</linearGradient>
			<path class="st5" d="M1921.7,428.5c23.2,0,43.2,8.3,59.8,24.8c16.6,16.6,25,36.5,25,59.7v280.4h-25V680.1h-119.7v113.4h-25V513.1
				c0-23.2,8.3-43.1,24.8-59.7C1878.3,436.8,1898.3,428.5,1921.7,428.5z M1981.5,655.1v-142c0-16.5-5.9-30.5-17.6-42.1
				s-25.8-17.4-42.3-17.4c-16.6,0-30.8,5.8-42.4,17.4s-17.4,25.7-17.4,42.1v142H1981.5z"/>
			
				<linearGradient id="SVGID_6_" gradientUnits="userSpaceOnUse" x1="997.4828" y1="852.7163" x2="2690.9749" y2="852.7163" gradientTransform="matrix(1 0 0 -1 266.8395 1463.6163)">
				<stop  offset="3.140703e-04" style="stop-color:#AB20FD"/>
				<stop  offset="1" style="stop-color:#FE2A32"/>
			</linearGradient>
			<path class="st6" d="M2146.2,792.5c-25,0-46.3-8.5-63.9-25.4c-17.6-16.9-26.4-37.4-26.4-61.5V516.2c0-23.9,8.8-44.4,26.4-61.4
				c17.6-17,38.9-25.5,63.9-25.5s46.3,8.5,64,25.5s26.5,37.5,26.5,61.4v12.5h-25v-12.5c0-17-6.4-31.6-19.3-43.7
				c-12.8-12.1-28.3-18.2-46.3-18.2s-33.4,6.1-46.2,18.2c-12.7,12.1-19.1,26.7-19.1,43.7v189.4c0,17.2,6.4,31.8,19.1,43.8
				c12.7,12.1,28.1,18.1,46.2,18.1c18,0,33.5-6,46.3-18.1s19.3-26.7,19.3-43.8v-12.5h25v12.5c0,24.1-8.8,44.6-26.5,61.5
				S2171.2,792.5,2146.2,792.5z"/>
			
				<linearGradient id="SVGID_7_" gradientUnits="userSpaceOnUse" x1="997.4828" y1="851.6664" x2="2690.9749" y2="851.6664" gradientTransform="matrix(1 0 0 -1 266.8395 1463.6163)">
				<stop  offset="3.140703e-04" style="stop-color:#AB20FD"/>
				<stop  offset="1" style="stop-color:#FE2A32"/>
			</linearGradient>
			<path class="st7" d="M2371.2,793.5c-24.5,0-45.4-8.7-62.8-26c-17.4-17.3-26.1-38.2-26.1-62.7V519.1c0-24.5,8.7-45.4,26.1-62.7
				c17.4-17.3,38.4-26,62.8-26c24.5,0,45.4,8.7,62.7,26s26,38.2,26,62.7v185.7c0,24.5-8.7,45.4-26,62.7
				C2416.6,784.8,2395.7,793.5,2371.2,793.5z M2371.2,455.3c-17.7,0-32.8,6.2-45.3,18.7s-18.7,27.5-18.7,45v185.7
				c0,17.5,6.2,32.5,18.7,45s27.6,18.7,45.3,18.7c17.5,0,32.5-6.2,45-18.7s18.7-27.5,18.7-45V519.1c0-17.5-6.2-32.5-18.7-45
				C2403.7,461.6,2388.7,455.3,2371.2,455.3z"/>
			
				<linearGradient id="SVGID_8_" gradientUnits="userSpaceOnUse" x1="997.4828" y1="851.6663" x2="2690.9749" y2="851.6663" gradientTransform="matrix(1 0 0 -1 266.8395 1463.6163)">
				<stop  offset="3.140703e-04" style="stop-color:#AB20FD"/>
				<stop  offset="1" style="stop-color:#FE2A32"/>
			</linearGradient>
			<path class="st8" d="M2511.9,793V430.9h25V793H2511.9z"/>
			
				<linearGradient id="SVGID_9_" gradientUnits="userSpaceOnUse" x1="997.4828" y1="852.3163" x2="2690.9749" y2="852.3163" gradientTransform="matrix(1 0 0 -1 266.8395 1463.6163)">
				<stop  offset="3.140703e-04" style="stop-color:#AB20FD"/>
				<stop  offset="1" style="stop-color:#FE2A32"/>
			</linearGradient>
			<path class="st9" d="M2754.7,791.7h-25l-115.8-296.8V793h-25V430.9h25l115.8,296.8V429.6h25V791.7z"/>
			
				<linearGradient id="SVGID_10_" gradientUnits="userSpaceOnUse" x1="997.4828" y1="851.6163" x2="2690.9749" y2="851.6163" gradientTransform="matrix(1 0 0 -1 266.8395 1463.6163)">
				<stop  offset="3.140703e-04" style="stop-color:#AB20FD"/>
				<stop  offset="1" style="stop-color:#FE2A32"/>
			</linearGradient>
			<path class="st10" d="M2868.6,794h-1.8c-29-1-54.2-12.8-75.7-35.4l18.5-17.2c16.6,17.7,35.9,26.9,57.8,27.6h0.8
				c17.9,0,32.8-5.9,44.7-17.7c12.8-13.4,19.4-24.5,19.6-33.3c0.3-8.8,0.4-13.6,0.4-14.3c0-16.1-5.8-30.3-17.4-42.7l-27.8-27.6
				l-54.6-54.9c-16.5-17.5-24.7-37.6-24.7-60.3v-2.1c0.5-23.8,9.6-44.9,27.3-63.5c15.3-15.1,31.9-22.6,49.9-22.6h2.3
				c22.2,0.9,43.7,12.9,64.5,36.2l-18.7,16.6c-16-18-31.5-27.3-46.6-27.8h-1c-11.4,0-22.4,5.2-32.8,15.6
				c-12.8,13.4-19.4,24.5-19.6,33.3c-0.3,8.8-0.4,13.6-0.4,14.3c0,16.1,5.8,30.4,17.4,42.7l54.6,54.9l27.8,27.6
				c16.5,17.5,24.7,37.6,24.7,60.3v2.1c-0.5,23.6-9.6,44.7-27.3,63.2C2913,785.7,2892.3,794,2868.6,794z"/>
		</g>
	</g>
</g>
</svg>
